<?xml version="1.0" standalone="no"?>
<!DOCTYPE svg PUBLIC "-//W3C//DTD SVG 20010904//EN"
 "http://www.w3.org/TR/2001/REC-SVG-20010904/DTD/svg10.dtd">
<svg version="1.0" xmlns="http://www.w3.org/2000/svg"
 width="500.000000pt" height="362.000000pt" viewBox="0 0 500.000000 362.000000"
 preserveAspectRatio="xMidYMid meet">

<g transform="translate(0.000000,362.000000) scale(0.100000,-0.100000)"
fill="#000000" stroke="none">
<path d="M15 3602 c6 -5 283 -205 616 -445 l606 -436 794 -4 c673 -3 812 -7
914 -21 255 -36 478 -100 632 -181 269 -142 423 -363 423 -605 0 -152 -45
-255 -157 -360 -119 -111 -301 -188 -533 -226 -52 -8 -111 -18 -130 -21 l-35
-6 40 -8 c158 -30 325 -43 555 -44 265 0 381 13 558 60 450 121 693 420 695
855 1 185 -36 337 -123 515 -126 255 -349 466 -656 620 -315 157 -651 240
-1204 296 -143 15 -3011 25 -2995 11z"/>
<path d="M1760 2029 c-323 -33 -556 -123 -719 -275 -93 -88 -145 -172 -167
-272 -68 -305 160 -650 651 -985 219 -149 543 -321 824 -436 l124 -51 1251 1
1251 0 -90 25 c-1183 327 -2076 687 -2504 1009 -188 142 -309 298 -326 424
-20 146 89 276 294 351 147 54 425 98 638 101 l68 1 -115 29 c-132 33 -332 64
-505 79 -142 12 -554 11 -675 -1z"/>
</g>
</svg>
