<?xml version="1.0" standalone="no"?>
<!DOCTYPE svg PUBLIC "-//W3C//DTD SVG 20010904//EN"
 "http://www.w3.org/TR/2001/REC-SVG-20010904/DTD/svg10.dtd">
<svg version="1.0" xmlns="http://www.w3.org/2000/svg"
 width="1024.000000pt" height="1024.000000pt" viewBox="0 0 1024.000000 1024.000000"
 preserveAspectRatio="xMidYMid meet">

<g transform="translate(0.000000,1024.000000) scale(0.100000,-0.100000)"
fill="#000000" stroke="none">
<path d="M0 5120 l0 -5120 5120 0 5120 0 0 5120 0 5120 -5120 0 -5120 0 0
-5120z m4335 2593 c127 -29 204 -58 325 -119 193 -98 344 -242 453 -433 l55
-96 -287 -3 -286 -3 -115 55 c-130 62 -215 91 -310 106 -36 5 -221 10 -412 10
l-348 0 0 -1309 0 -1310 22 -15 c19 -13 61 -16 255 -16 404 0 635 45 920 180
258 123 455 291 705 605 249 313 468 451 774 487 l105 12 -3 152 -3 151 110 6
c129 7 188 23 274 75 217 131 316 377 244 607 -50 159 -173 289 -328 347 -58
21 -75 22 -552 28 l-492 5 -55 87 c-74 119 -156 217 -271 326 l-97 92 678 0
c724 0 787 -4 939 -51 246 -76 454 -255 579 -498 102 -199 136 -404 101 -607
-42 -237 -141 -407 -317 -539 l-57 -42 76 -48 c388 -246 525 -778 323 -1257
-44 -105 -131 -227 -225 -316 -143 -136 -302 -220 -500 -265 -85 -19 -128 -20
-810 -24 l-720 -4 35 27 c106 81 237 246 321 402 l34 63 475 0 c532 -1 560 2
690 65 55 27 95 57 150 113 116 117 160 227 160 401 0 169 -50 291 -164 406
-74 74 -148 119 -245 148 -86 25 -429 23 -538 -4 -111 -27 -192 -62 -290 -126
-103 -67 -193 -155 -318 -314 -283 -358 -569 -578 -890 -686 -56 -19 -114 -34
-129 -34 -14 0 -26 -5 -26 -11 0 -20 299 -4 395 20 105 27 246 98 328 166 45
37 72 53 84 49 12 -4 14 -3 6 3 -9 7 1 23 39 59 28 27 47 42 42 34 -4 -8 -21
-26 -37 -39 -15 -13 -26 -29 -23 -36 2 -7 2 -16 -2 -20 -4 -4 -7 -23 -8 -43 0
-21 -4 -46 -8 -57 l-8 -20 13 20 c7 11 24 45 37 75 13 32 21 42 17 25 -9 -45
-78 -186 -126 -257 -122 -182 -341 -327 -582 -388 -136 -33 -279 -39 -969 -40
l-638 0 0 1826 0 1825 668 -4 c633 -3 672 -4 757 -24z m1573 -1299 l-3 -445
-104 -40 c-93 -35 -173 -74 -238 -117 l-23 -14 0 531 0 531 185 0 186 0 -3
-446z m-648 -455 l0 -431 -77 -101 c-43 -56 -126 -151 -185 -212 l-107 -110
-1 643 0 642 185 0 185 0 0 -431z m-650 -538 l0 -499 -52 -22 c-64 -28 -231
-85 -275 -95 l-33 -7 0 561 0 561 180 0 180 0 0 -499z m-2335 -2019 c63 -29
129 -92 163 -157 24 -44 27 -61 27 -145 0 -76 -4 -104 -21 -141 -31 -67 -87
-124 -152 -156 -54 -26 -65 -28 -224 -31 l-168 -4 0 334 0 333 162 -5 c142 -4
169 -8 213 -28z m747 11 c65 -29 129 -92 164 -160 26 -52 29 -68 29 -153 0
-85 -3 -101 -29 -152 -131 -258 -483 -254 -602 7 -45 98 -39 228 13 314 45 71
126 137 203 162 44 15 171 4 222 -18z m796 -238 c-3 -241 -5 -263 -24 -300
-82 -158 -331 -161 -422 -6 -27 46 -27 46 -32 304 l-5 257 63 0 62 0 0 -220
c0 -235 5 -265 50 -305 15 -14 36 -20 70 -20 34 0 55 6 70 20 45 40 50 70 50
307 l0 223 60 0 61 0 -3 -260z m265 102 c19 -84 43 -188 53 -231 l17 -80 43
150 c23 82 56 187 72 234 l29 84 44 -3 c24 -1 47 -6 51 -9 7 -7 109 -357 123
-422 7 -30 16 -4 66 200 32 129 59 235 59 235 0 0 27 0 60 0 39 0 60 -4 60
-12 0 -6 -33 -141 -74 -300 -40 -158 -77 -303 -81 -320 l-7 -33 -72 0 -72 0
-53 188 c-29 103 -55 194 -58 202 -3 8 -11 -10 -19 -40 -8 -30 -33 -121 -56
-202 l-42 -148 -70 0 -71 0 -83 328 c-45 180 -82 329 -82 332 0 3 28 4 63 2
l63 -4 37 -151z m1195 93 l3 -60 -146 0 -145 0 0 -75 0 -75 130 0 130 0 0 -60
0 -60 -130 0 -130 0 0 -75 0 -75 145 0 145 0 0 -60 0 -60 -210 0 -210 0 0 328
c0 181 2 331 4 333 2 2 96 3 208 2 l203 -2 3 -61z m1438 38 c145 -79 158 -286
24 -370 l-48 -30 52 -81 c29 -45 62 -99 75 -119 l23 -38 -70 0 -70 0 -68 110
-69 110 -52 0 -53 0 0 -110 0 -110 -64 0 -65 0 -1 328 c0 181 1 330 4 333 2 2
82 2 178 -1 138 -4 179 -8 204 -22z m840 -194 l144 -219 0 220 0 220 60 0 60
0 0 -332 0 -333 -60 0 -60 0 -150 228 -150 227 0 -227 0 -228 -65 0 -65 0 0
328 c0 181 2 331 4 333 2 2 35 3 72 3 l67 -2 143 -218z m535 92 c-1 -69 2
-126 6 -125 4 0 55 56 113 124 l105 123 78 3 c42 2 77 3 77 1 0 -2 -60 -72
-134 -156 l-134 -153 139 -176 c76 -96 139 -177 139 -179 0 -2 -34 -2 -75 0
l-75 4 -112 143 c-62 79 -115 144 -118 144 -3 1 -4 -64 -2 -144 l3 -145 -65 0
-66 0 0 333 0 332 61 -2 61 -1 -1 -126z m-2021 102 c53 -27 78 -60 91 -117 11
-50 -1 -106 -32 -145 l-21 -27 26 -24 c75 -69 74 -202 -1 -271 -51 -47 -83
-54 -259 -54 l-164 0 0 330 0 330 158 0 c144 0 162 -2 202 -22z m1050 -308 l0
-330 -62 0 -63 0 0 330 0 330 63 0 62 0 0 -330z"/>
<path d="M6172 5775 c0 -16 2 -22 5 -12 2 9 2 23 0 30 -3 6 -5 -1 -5 -18z"/>
<path d="M4023 4573 c15 -2 37 -2 50 0 12 2 0 4 -28 4 -27 0 -38 -2 -22 -4z"/>
<path d="M4133 4563 c9 -2 25 -2 35 0 9 3 1 5 -18 5 -19 0 -27 -2 -17 -5z"/>
<path d="M2020 3100 l0 -210 80 0 c157 0 240 72 240 207 -1 141 -84 213 -246
213 l-74 0 0 -210z"/>
<path d="M2838 3310 c-52 -16 -98 -52 -126 -98 -50 -85 -32 -212 40 -279 54
-51 138 -66 206 -37 167 69 180 318 20 398 -53 26 -91 31 -140 16z"/>
<path d="M6460 3213 l0 -98 101 5 c91 5 103 7 120 29 30 37 25 96 -10 132 -28
28 -33 29 -120 29 l-91 0 0 -97z"/>
<path d="M5830 3240 l0 -70 83 0 c95 0 120 15 120 72 0 51 -31 68 -124 68
l-79 0 0 -70z"/>
<path d="M5830 2965 l0 -75 95 0 c110 0 135 14 135 74 0 58 -34 76 -141 76
l-89 0 0 -75z"/>
</g>
</svg>
