<?xml version="1.0" encoding="UTF-8" standalone="no"?>
<svg
   xmlns:dc="http://purl.org/dc/elements/1.1/"
   xmlns:cc="http://creativecommons.org/ns#"
   xmlns:rdf="http://www.w3.org/1999/02/22-rdf-syntax-ns#"
   xmlns:svg="http://www.w3.org/2000/svg"
   xmlns="http://www.w3.org/2000/svg"
   viewBox="0 0 2666.6667 2666.6667"
   height="2666.6667"
   width="2666.6667"
   xml:space="preserve"
   id="svg2"
   version="1.1"><metadata
     id="metadata8"><rdf:RDF><cc:Work
         rdf:about=""><dc:format>image/svg+xml</dc:format><dc:type
           rdf:resource="http://purl.org/dc/dcmitype/StillImage" /></cc:Work></rdf:RDF></metadata><defs
     id="defs6"><clipPath
       id="clipPath20"
       clipPathUnits="userSpaceOnUse"><path
         id="path18"
         d="M 0,2000 H 2000 V 0 H 0 Z" /></clipPath></defs><g
     transform="matrix(1.3333333,0,0,-1.3333333,0,2666.6667)"
     id="g10"><path
       id="path12"
       style="fill:#ffffff;fill-opacity:1;fill-rule:nonzero;stroke:none"
       d="M 0,0 H 2000 V 2000 H 0 Z" /><g
       id="g14"><g
         clip-path="url(#clipPath20)"
         id="g16"><g
           transform="translate(1107.7021,972.2441)"
           id="g22"><path
             id="path24"
             style="fill:#000000;fill-opacity:1;fill-rule:nonzero;stroke:none"
             d="m 0,0 c 0,-8.452 -4.506,-12.221 -14.609,-12.221 h -78.76 V 19.573 H -17 c 11.916,0 17,-3.764 17,-12.589 z m -93.369,67.732 h 78.577 c 9.968,0 14.61,-3.825 14.61,-12.037 v -6.25 C -0.182,41.137 -5.212,37.592 -17,37.592 H -93.369 Z M 13.564,28.72 l -1.41,0.81 1.354,0.902 c 7.509,5.006 11.315,12.579 11.315,22.506 v 8.823 c 0,20.553 -10.143,29.322 -33.918,29.322 H -119.479 V -35.571 H -5.787 c 21.805,0 31.528,9.496 31.528,30.792 V 5.883 c 0,10.66 -3.983,18.13 -12.177,22.837" /></g><g
           transform="translate(1273.6504,972.2441)"
           id="g26"><path
             id="path28"
             style="fill:#000000;fill-opacity:1;fill-rule:nonzero;stroke:none"
             d="m 0,0 c 0,-8.452 -4.506,-12.221 -14.609,-12.221 h -78.76 V 19.573 H -17 c 11.916,0 17,-3.764 17,-12.589 z m -93.369,67.732 h 78.576 c 9.969,0 14.611,-3.825 14.611,-12.037 v -6.25 C -0.182,41.137 -5.212,37.592 -17,37.592 H -93.369 Z M 13.564,28.72 l -1.409,0.81 1.353,0.902 c 7.509,5.005 11.315,12.577 11.315,22.506 v 8.823 c 0,20.553 -10.143,29.322 -33.918,29.322 H -119.479 V -35.571 H -5.786 c 21.804,0 31.527,9.496 31.527,30.792 V 5.883 c 0,10.66 -3.983,18.13 -12.177,22.837" /></g><g
           transform="translate(1368.2051,936.6729)"
           id="g30"><path
             id="path32"
             style="fill:#000000;fill-opacity:1;fill-rule:nonzero;stroke:none"
             d="M 0,0 H 49.188 L 29.255,24.086 H 1.104 c -19.508,0 -25.457,6.119 -25.457,26.191 v 76.378 L -50.46,126.654 V 47.519 C -50.46,12.879 -36.783,0 0,0" /></g><g
           transform="translate(1363.2354,1034.3726)"
           id="g34"><path
             id="path36"
             style="fill:#000000;fill-opacity:1;fill-rule:nonzero;stroke:none"
             d="m 0,0 v -13.418 c 0,-20.025 10.775,-30.609 31.16,-30.609 h 68.931 c 6.912,0 10.565,-3.907 10.565,-11.3 v -7.537 c 0,-7.499 -3.616,-11.301 -10.749,-11.301 H 55.384 L 74.721,-97.7 h 30.515 c 20.332,0 31.529,10.283 31.529,28.953 v 14.706 c 0,20.024 -10.775,30.609 -31.16,30.609 H 36.676 c -6.913,0 -10.568,3.908 -10.568,11.301 v 6.249 c 0,7.499 3.618,11.301 10.751,11.301 l 96.095,-10e-4 c 0,0 2.416,0.093 3.811,0.147 v 23.39 H 31.529 C 11.198,28.955 0,18.672 0,0" /></g><g
           transform="translate(848.8491,1036.9468)"
           id="g38"><path
             id="path40"
             style="fill:#000000;fill-opacity:1;fill-rule:nonzero;stroke:none"
             d="m 0,0 c 0,2.072 1.206,3.212 3.397,3.212 h 68.01 c 12.519,0 18.102,-5.356 18.102,-17.366 v -7.721 c 0,-12.01 -5.583,-17.367 -18.102,-17.367 l -71.407,0 z m 78.811,-83.259 12.856,-17.015 h 30.609 l -15.491,19.194 -19.397,24.05 1.67,0.304 c 18.12,3.279 26.559,14.645 26.559,35.771 v 10.476 c 0,25.492 -11.878,36.86 -38.513,36.86 H -26.11 V -100.274 H 0 v 40.622 h 60.879 z" /></g><g
           transform="translate(780.8516,898.085)"
           id="g42"><path
             id="path44"
             style="fill:#f43131;fill-opacity:1;fill-rule:nonzero;stroke:none"
             d="m 0,0 c -32.764,8.821 -162.357,46.131 -162.357,84.406 0,25.407 58.927,23.727 58.927,23.727 -20.27,5.947 -41.505,7.681 -62.555,7.247 -19.414,-0.401 -42.798,-3.451 -56.866,-18.359 -11.063,-11.723 -10.181,-25.276 -3.677,-37.379 h -0.001 c 0.003,-0.005 0.006,-0.011 0.009,-0.016 1.793,-3.334 4.016,-6.554 6.53,-9.599 25.593,-31.729 82.081,-51.986 82.081,-51.986 h 5.062 4.553 H 2.908 7.461 C 4.97,-1.319 2.487,-0.653 0,0" /></g><g
           transform="translate(679.6987,970.6387)"
           id="g46"><path
             id="path48"
             style="fill:#f43131;fill-opacity:1;fill-rule:nonzero;stroke:none"
             d="m 0,0 c 0,0 106.982,-23.724 108.591,49.96 -0.368,12.11 -3.894,29.237 -17.94,44.877 -22.879,25.478 -65.508,38.398 -126.704,38.398 h -143.646 l 71.54,-51.516 h 72.106 c 37.457,0 63.444,-7.614 77.236,-22.63 C 51.929,47.388 51.039,35.552 50.903,34.27 50.849,7.027 16.318,1.219 0,0" /></g></g></g></g></svg>